# xmcd
#
# Track frame offsets:
#	150
#	16807
#	35351
#	53083
#	71462
#	89649
#	104972
#	124003
#	140266
#	158894
#	177328
#	195204
#
# Disc length: 2840 seconds
#
# Revision: 5
# Processed by: cddbd v1.5.2PL0 Copyright (c) Steve Scherf et al.
# Submitted via: audiograbber 1.83.01
#
DISCID=9e0b160c
DTITLE=Paul Carrack - I Know That Name
DYEAR=2008
DGENRE=Easy Listening
TTITLE0=Ain't No Love In The Heart Of The City
TTITLE1=I Don't Want To Hear Any More
TTITLE2=It Ain't Easy (To Love Somebody)
TTITLE3=No Doubt About It
TTITLE4=I Don't Want Your Love (I Need Your Love)
TTITLE5=Stay Awake (I'm Coming Home)
TTITLE6=Just 4 Tonite
TTITLE7=Love Is Thicker Than Water
TTITLE8=If I Didn't Love You
TTITLE9=Who Am I?
TTITLE10=Eyes Of Blue
TTITLE11=Am I In That Dream?
EXTD=
EXTT0=
EXTT1=
EXTT2=
EXTT3=
EXTT4=
EXTT5=
EXTT6=
EXTT7=
EXTT8=
EXTT9=
EXTT10=
EXTT11=
PLAYORDER=
